<svg width="155" height="50" viewBox="0 0 155 50" fill="none" xmlns="http://www.w3.org/2000/svg">
<path fill-rule="evenodd" clip-rule="evenodd" d="M28.7396 4.06566C27.5907 2.82611 26.4151 2.12724 25.2595 2.33175C25.263 6.56102 25.2916 12.3485 25.2937 12.7558L25.2937 12.812L25.2712 19.6901L27.1485 16.9171C27.444 16.4807 27.9341 16.2197 28.4582 16.2197H33.7914C35.1024 16.2197 35.8471 17.7328 35.0542 18.7856L30.2849 26.9858L36.0053 34.4401C36.8108 35.4272 36.1988 36.9211 34.9373 37.0472L29.5952 37.4812C29.0342 37.5373 28.4858 37.2888 28.1549 36.8285L24.7607 32.7178V42.9556C24.6201 46.5447 28.4529 48.886 31.5425 47.0983L38.8433 42.8742V26.9858H41.1085V41.5635L42.459 40.7821C43.8685 39.9665 44.7369 38.4522 44.7347 36.8136L44.707 15.9208C44.7059 15.1386 44.3023 14.4131 43.641 14.0043L42.2988 13.1748C41.3985 12.6184 40.2415 13.2717 40.2415 14.3365H37.9762C37.9762 11.4866 41.0728 9.73807 43.4826 11.2273L44.8247 12.0568C46.1571 12.8803 46.9701 14.342 46.9722 15.9178L47 36.8105C47.0033 39.2685 45.7007 41.54 43.5864 42.7633L32.67 49.0795C28.0355 51.761 22.2863 48.2491 22.4972 42.8654L22.4895 32.8234L19.6514 36.8875C19.3185 37.3101 18.7965 37.5348 18.2635 37.485L12.5664 37.0462C11.2764 36.9257 10.6663 35.3806 11.5212 34.399L16.9829 28.1279H2.26527V36.5563C2.26527 38.3028 3.25275 39.8964 4.8094 40.6621L14.9123 45.6319L13.919 47.6848L3.81618 42.7151C1.48121 41.5665 0 39.176 0 36.5563V17.4696C0 14.9257 1.39524 12.5934 3.62274 11.4029C8.30656 8.89942 17.4103 4.00565 23.5719 0.516701L23.604 0.498528L23.6372 0.482495C26.4733 -0.88735 28.9398 0.936427 30.3946 2.50594C31.1635 3.33549 31.7793 4.22224 32.1994 4.89209C32.4109 5.22931 32.5762 5.51705 32.6898 5.72276C32.7467 5.82573 32.7908 5.90848 32.8214 5.96698C32.8367 5.99624 32.8486 6.01946 32.8572 6.03614L32.8674 6.05622L32.8705 6.06247L32.872 6.06546C32.872 6.06546 32.8723 6.06613 31.8604 6.57922C30.8485 7.09231 30.8484 7.09196 30.8484 7.09196L30.8432 7.08172C30.838 7.07169 30.8296 7.05533 30.818 7.03313C30.7947 6.98871 30.7587 6.92104 30.7107 6.834C30.6144 6.6597 30.4706 6.40909 30.2849 6.11296C29.9105 5.5161 29.3797 4.75615 28.7396 4.06566ZM23.0284 12.7673C23.0266 12.3959 23.0025 7.52577 22.9956 3.45694C16.9307 6.85199 8.95653 11.1373 4.68365 13.4211C3.19558 14.2164 2.26527 15.7732 2.26527 17.4696V25.8437H18.1064L13.723 18.6972C13.0295 17.634 13.7858 16.2197 15.0478 16.2197H20.0963C20.6407 16.2197 21.1471 16.5013 21.4376 16.9657L23.0067 19.4749L23.0284 12.8044L23.0284 12.7673ZM14.1034 34.8958L18.1064 35.1764L23.0144 28.5486C23.4086 28.0163 24.202 28.0073 24.608 28.5306L29.76 35.1694L33.4476 34.9007L27.4568 27.5465C27.1842 27.2119 27.1571 26.7401 27.3896 26.3764L32.4219 18.5038H28.8171L24.9502 24.2157C24.5449 24.8145 23.6577 24.7984 23.2743 24.1853L19.7214 18.5038H16.3082L20.6601 26.345C20.8642 26.7127 20.8164 27.1687 20.5407 27.4861L14.1034 34.8958Z" fill="url(#paint0_linear_200_696)"/>
<path d="M43 28C43 29.6569 41.6569 31 40 31C38.3431 31 37 29.6569 37 28C37 26.3431 38.3431 25 40 25C41.6569 25 43 26.3431 43 28Z" fill="url(#paint1_linear_200_696)"/>
<path d="M42 14C42 15.6569 40.6569 17 39 17C37.3431 17 36 15.6569 36 14C36 12.3431 37.3431 11 39 11C40.6569 11 42 12.3431 42 14Z" fill="url(#paint2_linear_200_696)"/>
<path d="M35 7C35 8.65685 33.6569 10 32 10C30.3431 10 29 8.65685 29 7C29 5.34315 30.3431 4 32 4C33.6569 4 35 5.34315 35 7Z" fill="url(#paint3_linear_200_696)"/>
<path d="M18 47C18 48.6569 16.6569 50 15 50C13.3431 50 12 48.6569 12 47C12 45.3431 13.3431 44 15 44C16.6569 44 18 45.3431 18 47Z" fill="url(#paint4_linear_200_696)"/>
<path d="M83.4143 29.3813C83.4143 32.0637 84.1064 34.1023 85.527 35.4614C86.9476 36.8205 89.0602 37.5 91.865 37.5C94.6333 37.5 96.7459 36.8205 98.1665 35.4614C99.5871 34.1023 100.316 32.0994 100.316 29.3813V18.9801C100.316 18.7592 100.137 18.5801 99.9156 18.5801H96.1989C95.978 18.5801 95.7989 18.7592 95.7989 18.9801V29.1667C95.7989 30.633 95.4711 31.7418 94.8882 32.4571C94.269 33.1724 93.2491 33.53 91.865 33.53C90.4808 33.53 89.4609 33.1724 88.8417 32.4213C88.2225 31.706 87.9311 30.5973 87.9311 29.1667V18.9801C87.9311 18.7592 87.752 18.5801 87.5311 18.5801H83.8143C83.5934 18.5801 83.4143 18.7592 83.4143 18.9801V29.3813Z" fill="url(#paint5_linear_200_696)"/>
<path d="M111.034 18.8305C110.087 19.2597 109.286 19.8677 108.667 20.6903V18.9801C108.667 18.7592 108.488 18.5801 108.267 18.5801H104.659C104.438 18.5801 104.259 18.7592 104.259 18.9801V36.7781C104.259 36.999 104.438 37.1781 104.659 37.1781H108.376C108.597 37.1781 108.776 36.999 108.776 36.7781V26.8777C108.776 25.3398 109.14 24.1595 109.941 23.3369C110.743 22.5143 111.836 22.0851 113.293 22.0851C114.042 22.0851 114.768 22.197 115.454 22.3854C115.718 22.4581 115.988 22.265 115.988 21.9908V18.6776C115.988 18.4781 115.841 18.3085 115.643 18.2837C115.218 18.2304 114.744 18.1867 114.203 18.1867C113.038 18.1867 111.981 18.4013 111.034 18.8305Z" fill="url(#paint6_linear_200_696)"/>
<path d="M149.763 37.0041L145.964 31.4564C145.802 31.2192 145.45 31.2257 145.296 31.4687L141.805 36.9918C141.731 37.1078 141.604 37.1781 141.466 37.1781H137.491C137.17 37.1781 136.979 36.8178 137.161 36.5523L143.135 27.8193C143.228 27.6829 143.228 27.5032 143.134 27.367L137.528 19.2066C137.345 18.9412 137.535 18.5801 137.857 18.5801H141.84C141.972 18.5801 142.096 18.6454 142.17 18.7545L145.57 23.731C145.732 23.9679 146.084 23.9624 146.238 23.7205L149.4 18.7649C149.474 18.6498 149.601 18.5801 149.737 18.5801H153.663C153.987 18.5801 154.177 18.9462 153.989 19.2112L148.295 27.2579C148.198 27.3948 148.197 27.5775 148.292 27.7156L154.369 36.5514C154.551 36.8168 154.361 37.1781 154.039 37.1781H150.093C149.961 37.1781 149.838 37.113 149.763 37.0041Z" fill="url(#paint7_linear_200_696)"/>
<path fill-rule="evenodd" clip-rule="evenodd" d="M63.9965 32.3856H74.1173C74.2834 32.3856 74.4322 32.4882 74.4912 32.6435L76.1164 36.9202C76.1754 37.0755 76.3242 37.1781 76.4903 37.1781H80.7133C80.9989 37.1781 81.1925 36.8875 81.0824 36.6239L71.1083 12.7458C71.0461 12.5969 70.9006 12.5 70.7392 12.5H67.3745C67.2132 12.5 67.0676 12.5969 67.0055 12.7458L57.0313 36.6239C56.9212 36.8875 57.1148 37.1781 57.4004 37.1781H61.6234C61.7895 37.1781 61.9384 37.0755 61.9974 36.9202L63.6226 32.6435C63.6816 32.4882 63.8304 32.3856 63.9965 32.3856ZM69.4138 19.4136L72.6909 27.9437C72.7916 28.2057 72.5982 28.4871 72.3176 28.4871H65.7942C65.5141 28.4871 65.3208 28.2066 65.4204 27.9449L68.6666 19.4148C68.7972 19.0717 69.2822 19.0709 69.4138 19.4136Z" fill="url(#paint8_linear_200_696)"/>
<path fill-rule="evenodd" clip-rule="evenodd" d="M132.262 20.1538C133.719 21.3698 134.448 23.0866 134.448 25.304V36.7781C134.448 36.999 134.269 37.1781 134.048 37.1781H130.477C130.256 37.1781 130.077 36.999 130.077 36.7781V35.4614C129.312 36.1767 128.511 36.6774 127.673 36.9635C126.799 37.2496 125.779 37.3927 124.577 37.3927C122.282 37.3927 120.534 36.892 119.368 35.8906C118.202 34.8891 117.619 33.4943 117.619 31.6345C117.619 29.882 118.239 28.5229 119.477 27.593C120.716 26.6631 122.537 26.1981 124.905 26.1981H129.968V25.0894C129.968 22.872 128.62 21.7632 125.961 21.7632C124.722 21.7632 123.848 21.9778 123.302 22.407C122.755 22.8362 122.5 23.4084 122.5 24.0522C122.5 24.1115 122.452 24.1595 122.393 24.1595H118.31C118.25 24.1595 118.202 24.1115 118.202 24.0522C118.202 22.2997 118.894 20.9049 120.315 19.9034C121.736 18.902 123.666 18.3655 126.07 18.3655C128.766 18.3655 130.805 18.9735 132.262 20.1538ZM125.742 29.2382H129.968V30.3827C129.968 32.7074 128.474 33.8519 125.56 33.8519C124.358 33.8519 123.448 33.6731 122.865 33.2439C122.282 32.8505 121.991 32.2783 121.991 31.5272C121.991 30.7403 122.282 30.1681 122.901 29.8104C123.484 29.4528 124.431 29.2382 125.742 29.2382Z" fill="url(#paint9_linear_200_696)"/>
<defs>
<linearGradient id="paint0_linear_200_696" x1="0.803419" y1="45.1923" x2="53.3645" y2="35.8651" gradientUnits="userSpaceOnUse">
<stop stop-color="#2C6FA4"/>
<stop offset="1" stop-color="#063E69"/>
</linearGradient>
<linearGradient id="paint1_linear_200_696" x1="37.1026" y1="30.4231" x2="43.7856" y2="29.1614" gradientUnits="userSpaceOnUse">
<stop stop-color="#2C6FA4"/>
<stop offset="1" stop-color="#063E69"/>
</linearGradient>
<linearGradient id="paint2_linear_200_696" x1="36.1026" y1="16.4231" x2="42.7856" y2="15.1614" gradientUnits="userSpaceOnUse">
<stop stop-color="#2C6FA4"/>
<stop offset="1" stop-color="#063E69"/>
</linearGradient>
<linearGradient id="paint3_linear_200_696" x1="29.1026" y1="9.42308" x2="35.7856" y2="8.16143" gradientUnits="userSpaceOnUse">
<stop stop-color="#2C6FA4"/>
<stop offset="1" stop-color="#063E69"/>
</linearGradient>
<linearGradient id="paint4_linear_200_696" x1="12.1026" y1="49.4231" x2="18.7856" y2="48.1614" gradientUnits="userSpaceOnUse">
<stop stop-color="#2C6FA4"/>
<stop offset="1" stop-color="#063E69"/>
</linearGradient>
<linearGradient id="paint5_linear_200_696" x1="58.6656" y1="35.0962" x2="131.587" y2="-18.5591" gradientUnits="userSpaceOnUse">
<stop stop-color="#2C6FA4"/>
<stop offset="1" stop-color="#063E69"/>
</linearGradient>
<linearGradient id="paint6_linear_200_696" x1="58.6656" y1="35.0962" x2="131.587" y2="-18.5591" gradientUnits="userSpaceOnUse">
<stop stop-color="#2C6FA4"/>
<stop offset="1" stop-color="#063E69"/>
</linearGradient>
<linearGradient id="paint7_linear_200_696" x1="58.6656" y1="35.0962" x2="131.587" y2="-18.5591" gradientUnits="userSpaceOnUse">
<stop stop-color="#2C6FA4"/>
<stop offset="1" stop-color="#063E69"/>
</linearGradient>
<linearGradient id="paint8_linear_200_696" x1="58.6656" y1="35.0962" x2="131.587" y2="-18.5591" gradientUnits="userSpaceOnUse">
<stop stop-color="#2C6FA4"/>
<stop offset="1" stop-color="#063E69"/>
</linearGradient>
<linearGradient id="paint9_linear_200_696" x1="58.6656" y1="35.0962" x2="131.587" y2="-18.5591" gradientUnits="userSpaceOnUse">
<stop stop-color="#2C6FA4"/>
<stop offset="1" stop-color="#063E69"/>
</linearGradient>
</defs>
</svg>
